<svg width="122" height="122" viewBox="0 0 122 122" xmlns="http://www.w3.org/2000/svg" xmlns:xlink="http://www.w3.org/1999/xlink">
    <defs>
        <filter x="-75.3%" y="-70.4%" width="250.5%" height="250.5%" filterUnits="objectBoundingBox" id="a">
            <feOffset dy="3" in="SourceAlpha" result="shadowOffsetOuter1"/>
            <feGaussianBlur stdDeviation="15" in="shadowOffsetOuter1" result="shadowBlurOuter1"/>
            <feColorMatrix values="0 0 0 0 1 0 0 0 0 0.658823529 0 0 0 0 0.658823529 0 0 0 0.25 0" in="shadowBlurOuter1"/>
        </filter>
        <path d="M0 30.892C0 13.83 13.83 0 30.892 0c17.06 0 30.892 13.83 30.892 30.892 0 17.06-13.831 30.892-30.892 30.892S0 47.953 0 30.892z" id="b"/>
    </defs>
    <g fill="none" fill-rule="evenodd">
        <g transform="translate(30 27)">
            <use fill="#000" filter="url(#a)" xlink:href="#b"/>
            <use fill="#FFA8A8" xlink:href="#b"/>
        </g>
        <g fill="#FFF">
            <path d="M59 67.02V48.98A1.98 1.98 0 0 1 60.98 47h.04A1.98 1.98 0 0 1 63 48.98v18.04A1.98 1.98 0 0 1 61.02 69h-.04A1.98 1.98 0 0 1 59 67.02z"/>
            <path d="M50 58.02v-.04A1.98 1.98 0 0 1 51.98 56h18.04A1.98 1.98 0 0 1 72 57.98v.04A1.98 1.98 0 0 1 70.02 60H51.98A1.98 1.98 0 0 1 50 58.02z"/>
        </g>
    </g>
</svg>
