<svg width="28" height="30" viewBox="0 0 28 30" xmlns="http://www.w3.org/2000/svg">
    <path d="M26.524 8.684a.746.746 0 0 0-.737-.706H20.63V6.961C20.63 3.117 17.606 0 13.875 0S7.119 3.117 7.119 6.961v1.017H2.213a.746.746 0 0 0-.737.706L.002 29.18a.773.773 0 0 0 .194.577c.14.155.337.244.543.243h26.522a.727.727 0 0 0 .543-.243.773.773 0 0 0 .194-.577L26.524 8.684zM8.592 6.961c0-3.006 2.365-5.443 5.283-5.443 2.917 0 5.282 2.437 5.282 5.443v1.017H8.592V6.961zm-7.057 21.52L2.898 9.505h4.221v1.237c-.963.368-1.533 1.394-1.352 2.436.182 1.042 1.061 1.8 2.089 1.8 1.027 0 1.907-.758 2.088-1.8.181-1.042-.388-2.068-1.352-2.436V9.496h10.565v1.238c-.964.367-1.533 1.394-1.352 2.436.181 1.042 1.061 1.8 2.089 1.8 1.027 0 1.907-.758 2.088-1.8.181-1.042-.388-2.069-1.352-2.436V9.496h4.472l1.363 18.978-24.93.008zm6.32-16.373a.655.655 0 0 1 .612.412.69.69 0 0 1-.138.738.642.642 0 0 1-.715.15.676.676 0 0 1-.407-.625.679.679 0 0 1 .188-.477.639.639 0 0 1 .46-.198zm12.039 0a.655.655 0 0 1 .61.412.69.69 0 0 1-.137.738.642.642 0 0 1-.715.15.676.676 0 0 1-.407-.625.679.679 0 0 1 .188-.477.639.639 0 0 1 .46-.198z" fill="#FFA8A8" fill-rule="nonzero"/>
</svg>
