<svg width="30" height="31" viewBox="0 0 30 31" xmlns="http://www.w3.org/2000/svg">
    <path d="m11.07 13.295.169.026c.086.012.169.039.246.078.08.026.154.065.22.117a.843.843 0 0 1 .208.168.57.57 0 0 1 .155.195c.05.069.094.143.13.22l.078.247c.007.086.007.173 0 .26 0 .716-.58 1.296-1.296 1.296a1.296 1.296 0 0 1-.882-.389 1.297 1.297 0 0 1-.285-.428 1.298 1.298 0 0 1-.091-.493.844.844 0 0 1 .078-.505.726.726 0 0 1 .117-.221.57.57 0 0 1 .155-.195.843.843 0 0 1 .195-.155.726.726 0 0 1 .22-.117.778.778 0 0 1 .246-.078c.166-.039.34-.039.506 0l-.168-.026zm8.284-.013.169.026c.169.04.33.105.48.195.132.104.25.227.35.363a.519.519 0 0 1 .116.22.84.84 0 0 1 .078.506 1.09 1.09 0 0 1-.104.493 1.036 1.036 0 0 1-.311.428c-.24.245-.566.385-.908.39a1.596 1.596 0 0 1-.505-.104 1.298 1.298 0 0 1-.57-.714 1.076 1.076 0 0 1-.091-.493.86.86 0 0 1 0-.26v-.245l.13-.221a.573.573 0 0 1 .155-.195l.194-.168a.986.986 0 0 1 .234-.117.905.905 0 0 1 .246-.078c.166-.039.34-.039.506 0l-.169-.026zm-9.658-9.87a7.257 7.257 0 0 1 12.614 4.02l.219.005c2.128.085 4.562 1.422 5.251 5.184l1.115 8.664c.428 3.01-.13 5.332-1.426 6.875-1.296 1.544-3.422 2.296-6.482 2.296H9.177a7.27 7.27 0 0 1-6.414-2.47 7.28 7.28 0 0 1-1.493-6.713l.032-.151a1.133 1.133 0 0 1 2.21.475 5.996 5.996 0 0 0 .973 4.903 6.194 6.194 0 0 0 4.68 1.686h11.822c2.347 0 3.967-.493 4.81-1.517.843-1.025 1.18-2.737.843-5.072l-1.102-8.574c-.39-2.076-1.595-3.373-3.228-3.373H7.842c-1.555 0-2.76 1.297-3.24 3.464L4.29 15.02a1.14 1.14 0 0 1-2.242-.389l.324-1.945c.855-3.957 3.383-5.254 5.47-5.254h12.16a5.073 5.073 0 0 0-1.607-2.983 4.976 4.976 0 0 0-7.027.389v.13l-.127.117a1.142 1.142 0 0 1-1.545-1.674z" fill="#92A0A7" stroke="#92A0A7" stroke-width=".5" fill-rule="evenodd"/>
</svg>
