<svg width="375" height="812" viewBox="0 0 375 812" xmlns="http://www.w3.org/2000/svg" xmlns:xlink="http://www.w3.org/1999/xlink">
    <defs>
        <path id="a" d="M0 812V0h375v812z"/>
    </defs>
    <g fill="none" fill-rule="evenodd">
        <mask id="b" fill="#fff">
            <use xlink:href="#a"/>
        </mask>
        <use fill="#FFF" xlink:href="#a"/>
        <path d="M2 650.5a9.47 9.47 0 0 1 6.718 2.782A9.47 9.47 0 0 1 11.5 660a9.47 9.47 0 0 1-2.782 6.718A9.47 9.47 0 0 1 2 669.5a9.47 9.47 0 0 1-6.718-2.782A9.47 9.47 0 0 1-7.5 660a9.47 9.47 0 0 1 2.782-6.718A9.47 9.47 0 0 1 2 650.5z" stroke="#FFA8A8" stroke-width="5" opacity=".15" mask="url(#b)"/>
        <path d="M374 138.5c3.728 0 7.103 1.511 9.546 3.954A13.458 13.458 0 0 1 387.5 152c0 3.728-1.511 7.103-3.954 9.546A13.458 13.458 0 0 1 374 165.5a13.458 13.458 0 0 1-9.546-3.954A13.458 13.458 0 0 1 360.5 152c0-3.728 1.511-7.103 3.954-9.546A13.458 13.458 0 0 1 374 138.5z" stroke="#FFA8A8" stroke-width="7" opacity=".1" mask="url(#b)"/>
        <path d="M0 181.348c23.617 3.148 49.47-9.807 77.56-38.866 42.136-43.588 72.284-91.172 148.926-70.104C303.127 93.445 327.053 99.526 375 0H0v181.348z" fill="#FFA8A8" opacity=".08" mask="url(#b)"/>
    </g>
</svg>
