<svg width="24" height="24" viewBox="0 0 24 24" xmlns="http://www.w3.org/2000/svg">
    <g fill="none" fill-rule="evenodd">
        <path d="M0 12C0 5.373 5.373 0 12 0s12 5.373 12 12-5.373 12-12 12S0 18.627 0 12z" fill="#FFF"/>
        <path d="m12.946 12.21 3.315-3.315a.509.509 0 0 0 0-.737.509.509 0 0 0-.736 0l-3.315 3.315-3.315-3.315a.509.509 0 0 0-.737 0 .509.509 0 0 0 0 .737l3.315 3.315-3.315 3.315a.478.478 0 0 0-.158.368c0 .316.21.526.526.526a.478.478 0 0 0 .369-.158l3.315-3.315 3.315 3.315c.105.106.21.158.368.158a.478.478 0 0 0 .368-.158.509.509 0 0 0 0-.736l-3.315-3.315z" fill="#FFA8A8"/>
    </g>
</svg>
