<svg width="41" height="31" viewBox="0 0 41 31" xmlns="http://www.w3.org/2000/svg">
    <path d="M16.353 16.819a2.332 2.332 0 0 1 2.331-2.331h3.73a2.332 2.332 0 0 1 2.331 2.331v2.331h-8.392V16.82zm9.791 5.129c.774 0 1.399-.625 1.399-1.399v-3.73a5.138 5.138 0 0 0-5.129-5.129h-3.73a5.138 5.138 0 0 0-5.129 5.129v3.73c0 .774.625 1.399 1.399 1.399h11.19zm-7.926-16.32a2.332 2.332 0 1 1 4.664.003 2.332 2.332 0 0 1-4.664-.002zm7.46 0A5.138 5.138 0 0 0 20.549.5a5.138 5.138 0 0 0-5.129 5.129 5.138 5.138 0 0 0 5.13 5.129 5.138 5.138 0 0 0 5.128-5.13zM37.8 27.544h-8.393v-2.331a2.332 2.332 0 0 1 2.331-2.332h3.73a2.332 2.332 0 0 1 2.332 2.332v2.33zm-2.332-7.46h-3.73a5.138 5.138 0 0 0-5.129 5.129v3.73c0 .774.625 1.398 1.4 1.398H39.2c.773 0 1.398-.624 1.398-1.398v-3.73a5.138 5.138 0 0 0-5.129-5.13zm-1.865-3.73a2.332 2.332 0 1 1 .002-4.665 2.332 2.332 0 0 1-.002 4.665zm0-7.46a5.138 5.138 0 0 0-5.129 5.128 5.138 5.138 0 0 0 5.13 5.13 5.138 5.138 0 0 0 5.128-5.13 5.138 5.138 0 0 0-5.129-5.128zM3.298 25.212a2.332 2.332 0 0 1 2.33-2.332h3.73a2.332 2.332 0 0 1 2.332 2.332v2.33H3.298v-2.33zm-2.798 0v3.73c0 .774.625 1.398 1.399 1.398h11.19c.774 0 1.399-.624 1.399-1.398v-3.73a5.138 5.138 0 0 0-5.13-5.13h-3.73A5.138 5.138 0 0 0 .5 25.213zm4.663-11.19a2.332 2.332 0 1 1 4.664.001 2.332 2.332 0 0 1-4.664-.002zm7.46 0a5.138 5.138 0 0 0-5.13-5.13 5.138 5.138 0 0 0-5.128 5.13 5.138 5.138 0 0 0 5.129 5.128 5.138 5.138 0 0 0 5.129-5.129z" fill="#92A0A7" stroke="#FFF" stroke-width=".5" fill-rule="evenodd"/>
</svg>
