<svg width="50" height="82" viewBox="0 0 50 82" xmlns="http://www.w3.org/2000/svg">
    <g fill="#FFA8A8" fill-rule="nonzero">
        <g stroke="#FFF" transform="translate(1 1)">
            <path d="M37.793 65.05c-5.832 7.506-9.19 8.453-12.178 9.3l-.52.151a1.351 1.351 0 0 0-.686.49l-2.079 2.872c-.432.6-.306 1.437.28 1.876.234.177.507.261.778.261.405 0 .804-.19 1.064-.546l1.812-2.505.35-.1c3.064-.868 6.88-1.946 13.245-10.137.567-.73 1.604-2.408 2.61-4.025.737-1.19 1.403-2.281 1.693-2.66l2.659-3.298c.458-.57.672-1.286.6-2.023a2.743 2.743 0 0 0-.976-1.858l-.721-.603 1.654-2.053a2.792 2.792 0 0 0-.376-3.881l-1.074-.894 1.446-1.795a2.76 2.76 0 0 0 .603-2.023A2.75 2.75 0 0 0 47 39.737l-1.252-1.045 1.634-2.026c.461-.57.675-1.286.606-2.02a2.735 2.735 0 0 0-.978-1.861l-1.523-1.27a2.381 2.381 0 0 0-.24-.18V21.05c.507-.188.873-.67.873-1.25v-3.348c0-.58-.366-1.062-.873-1.25V4.95c0-2.73-2.185-4.95-4.87-4.95H11.968c-2.686 0-4.87 2.22-4.87 4.95v25.548a5.573 5.573 0 0 0-3.868-.195c-.97.305-1.796.868-2.376 1.648a4.077 4.077 0 0 0-.346.596c-.794 1.651-.481 3.644-.234 5.251l.105.71c.893 6.57.468 9.903.122 12.595-.26 2.066-.507 4.019 0 6.607.528 2.7 1.427 4.645 2.3 6.376l-1.723 2.797a1.355 1.355 0 0 0 .415 1.848c.616.389 1.43.204 1.816-.422l2.125-3.442c.247-.402.145-1.156-.07-1.578-.784-1.527-1.756-3.429-2.28-6.101-.421-2.157-.22-3.737.034-5.753.362-2.837.813-6.367-.129-13.292l-.115-.77c-.201-1.293-.429-2.756.122-3.865.204-.274.57-.505 1.008-.643a2.944 2.944 0 0 1 2.369.258c.254.148.494.338.718.57v25.645c0 1.895 1.44 3.385 3.279 3.385h28.955c-.616.988-1.213 1.916-1.532 2.328zm4.504-6.894c-.046.04-.089.08-.132.127-.425-.027-1.288-.57-1.693-1.313l2.059-2.552c.234.014.458.01.672-.026.26-.027.514-.077.758-.151l.814.68.01.11-2.488 3.125zm.468-6.42c-.07-.013-.109-.003-.168-.007-.455-.107-1.2-.62-1.569-1.292l2.073-2.569a3.98 3.98 0 0 0 1.245-.305l.982.82-2.563 3.353zm-1.733-7.87 2.072-2.568a4.07 4.07 0 0 0 1.246-.302l.985.82.01.111-2.59 3.255c-.412-.003-1.305-.556-1.723-1.316zm2.78-10.28 1.536 1.382-2.59 3.252c-.415 0-1.308-.552-1.723-1.313l2.735-3.338c.016 0 .026.003.043.016zM9.735 4.95c0-1.253 1.001-2.27 2.234-2.27h28.408c1.232 0 2.234 1.017 2.234 2.27V8.14H9.734V4.95zm0 28.244V10.817H42.61V31.15a2.68 2.68 0 0 0-.942.747l-2.672 3.308c-.65.804-.739 1.869-.248 2.924.386.827 1.065 1.557 1.846 2.06l-1.595 1.975c-.65.804-.738 1.869-.247 2.924.349.753.945 1.426 1.64 1.922l-1.39 1.724c-.35.432-.524.945-.544 1.49H9.734V33.195zm.642 26.844c-.366 0-.642-.302-.642-.704v-6.433h29.91c.13.134.241.278.383.395l-1.588 1.97c-.65.803-.742 1.872-.247 2.923.332.717.886 1.36 1.535 1.845h-29.35v.004z"/>
            <path d="M28.257 4.293H24.14c-.636 0-1.153.526-1.153 1.172 0 .647.517 1.172 1.153 1.172h4.118c.636 0 1.154-.525 1.154-1.172 0-.646-.518-1.172-1.154-1.172z"/>
            <ellipse cx="34.692" cy="5.465" rx="1.183" ry="1.202"/>
            <ellipse cx="26.277" cy="56.625" rx="2.04" ry="2.073"/>
        </g>
        <path d="M32 22.143c0-1.273 0-3.016-.602-4.457C30.653 15.904 29.173 15 27 15c-2.173 0-3.653.904-4.398 2.686C22 19.127 22 20.87 22 22.143c0 1.454.627 2.836 1.72 3.79a5.343 5.343 0 0 0-1.157.928 1.406 1.406 0 0 0 .282 2.144c1.063.66 2.461.995 4.155.995 1.694 0 3.092-.335 4.155-.995a1.406 1.406 0 0 0 .282-2.144 5.343 5.343 0 0 0-1.156-.929A5.028 5.028 0 0 0 32 22.143zm-8.9 6.447a.913.913 0 0 1-.183-1.396 5.274 5.274 0 0 1 2.578-1.477c.015.103.052.2.107.289.293.48 1.144.517 1.398.517s1.105-.037 1.398-.517a.764.764 0 0 0 .107-.289 5.274 5.274 0 0 1 2.578 1.477.916.916 0 0 1-.183 1.396c-.919.57-2.177.922-3.9.922-1.723 0-2.981-.352-3.9-.922zm2.942-3.82a3.16 3.16 0 0 0 1.916 0c.073.351.136.802.027.98a.63.63 0 0 1-.374.207 2.403 2.403 0 0 1-1.36-.044.782.782 0 0 1-.165-.088.284.284 0 0 1-.07-.075c-.11-.178-.047-.629.026-.98zm-1.74-3.053c0-.822.002-1.94.448-2.78 1.041.572 2.629 1.215 4.91 1.591.037.421.037.833.037 1.19A2.705 2.705 0 0 1 27 24.43a2.705 2.705 0 0 1-2.698-2.713zm4.216 3.503a4.876 4.876 0 0 0-.104-.64 3.203 3.203 0 0 0 1.769-2.863c0-.35 0-.784-.039-1.23l-.032-.379-.373-.061c-1.857-.307-3.458-.825-4.756-1.539l-.43-.236-.231.435c-.505.95-.505 2.141-.505 3.01a3.203 3.203 0 0 0 1.77 2.863c-.05.211-.084.425-.105.64-.45.106-.888.262-1.305.464a4.54 4.54 0 0 1-1.692-3.541c0-2.507 0-6.655 4.515-6.655s4.515 4.148 4.515 6.655a4.54 4.54 0 0 1-1.692 3.541 6.227 6.227 0 0 0-1.305-.464zM22 33.143c0-1.273 0-3.016-.602-4.457C20.653 26.904 19.173 26 17 26c-2.173 0-3.653.904-4.398 2.686C12 30.127 12 31.87 12 33.143c0 1.454.627 2.836 1.72 3.79a5.343 5.343 0 0 0-1.157.928 1.406 1.406 0 0 0 .282 2.144c1.063.66 2.461.995 4.155.995 1.694 0 3.092-.335 4.155-.995a1.406 1.406 0 0 0 .282-2.144 5.343 5.343 0 0 0-1.156-.929A5.028 5.028 0 0 0 22 33.143zm-8.9 6.447a.913.913 0 0 1-.183-1.396 5.274 5.274 0 0 1 2.578-1.477c.015.103.052.2.107.289.293.48 1.144.517 1.398.517s1.105-.037 1.398-.517a.764.764 0 0 0 .107-.289 5.274 5.274 0 0 1 2.578 1.477.916.916 0 0 1-.183 1.396c-.919.57-2.177.922-3.9.922-1.723 0-2.981-.352-3.9-.922zm2.942-3.82a3.16 3.16 0 0 0 1.916 0c.073.351.136.802.027.98a.63.63 0 0 1-.374.207 2.403 2.403 0 0 1-1.36-.044.782.782 0 0 1-.165-.088.284.284 0 0 1-.07-.075c-.11-.178-.047-.629.026-.98zm-1.74-3.053c0-.822.002-1.94.448-2.78 1.041.572 2.629 1.215 4.91 1.591.037.421.037.833.037 1.19A2.705 2.705 0 0 1 17 35.43a2.705 2.705 0 0 1-2.698-2.713zm4.216 3.503a4.876 4.876 0 0 0-.104-.64 3.203 3.203 0 0 0 1.769-2.863c0-.35 0-.784-.039-1.23l-.032-.379-.373-.061c-1.857-.307-3.458-.825-4.756-1.539l-.43-.236-.231.435c-.505.95-.505 2.141-.505 3.01a3.203 3.203 0 0 0 1.77 2.863c-.05.211-.084.425-.105.64-.45.106-.888.262-1.305.464a4.54 4.54 0 0 1-1.692-3.541c0-2.507 0-6.655 4.515-6.655s4.515 4.148 4.515 6.655a4.54 4.54 0 0 1-1.692 3.541 6.227 6.227 0 0 0-1.305-.464zM42 33.143c0-1.273 0-3.016-.602-4.457C40.653 26.904 39.173 26 37 26c-2.173 0-3.653.904-4.398 2.686C32 30.127 32 31.87 32 33.143c0 1.454.627 2.836 1.72 3.79a5.343 5.343 0 0 0-1.157.928 1.406 1.406 0 0 0 .282 2.144c1.063.66 2.461.995 4.155.995 1.694 0 3.092-.335 4.155-.995a1.406 1.406 0 0 0 .282-2.144 5.343 5.343 0 0 0-1.156-.929A5.028 5.028 0 0 0 42 33.143zm-8.9 6.447a.913.913 0 0 1-.183-1.396 5.274 5.274 0 0 1 2.578-1.477c.015.103.052.2.107.289.293.48 1.144.517 1.398.517s1.105-.037 1.398-.517a.764.764 0 0 0 .107-.289 5.274 5.274 0 0 1 2.578 1.477.916.916 0 0 1-.183 1.396c-.919.57-2.177.922-3.9.922-1.723 0-2.981-.352-3.9-.922zm2.942-3.82a3.16 3.16 0 0 0 1.916 0c.073.351.136.802.027.98a.63.63 0 0 1-.374.207 2.403 2.403 0 0 1-1.36-.044.782.782 0 0 1-.165-.088.284.284 0 0 1-.07-.075c-.11-.178-.047-.629.026-.98zm-1.74-3.053c0-.822.002-1.94.448-2.78 1.041.572 2.629 1.215 4.91 1.591.037.421.037.833.037 1.19A2.705 2.705 0 0 1 37 35.43a2.705 2.705 0 0 1-2.698-2.713zm4.216 3.503a4.876 4.876 0 0 0-.104-.64 3.203 3.203 0 0 0 1.769-2.863c0-.35 0-.784-.039-1.23l-.032-.379-.373-.061c-1.857-.307-3.458-.825-4.756-1.539l-.43-.236-.231.435c-.505.95-.505 2.141-.505 3.01a3.203 3.203 0 0 0 1.77 2.863c-.05.211-.084.425-.105.64-.45.106-.888.262-1.305.464a4.54 4.54 0 0 1-1.692-3.541c0-2.507 0-6.655 4.515-6.655s4.515 4.148 4.515 6.655a4.54 4.54 0 0 1-1.692 3.541 6.227 6.227 0 0 0-1.305-.464z" stroke="#FFA8A8" stroke-width=".9"/>
    </g>
</svg>
