<svg width="16" height="19" viewBox="0 0 16 19" xmlns="http://www.w3.org/2000/svg">
    <path d="M9.966 1c.048.024.072.024.12.047 0 .024.024.024.024.024a.33.33 0 0 1 .095.07l4.651 4.351.024.025a.302.302 0 0 1 .048.07c.024 0 .024.024.024.024.024.047.048.07.048.118v9.434C15 16.723 13.705 18 12.123 18v-.024H3.877C2.295 17.976 1 16.7 1 15.14V3.837C1 2.277 2.295 1 3.877 1zm-.576.97H3.877c-1.055 0-1.918.85-1.918 1.89v11.303c0 1.04.863 1.891 1.918 1.891h8.246c1.055 0 1.918-.85 1.918-1.891V6.296H9.87a.478.478 0 0 1-.48-.473V1.97zm2.158 11.207c.264 0 .48.212.48.473 0 .26-.216.472-.48.472H4.476a.478.478 0 0 1-.48-.472c0-.26.216-.473.48-.473zM8.432 9.843c.263 0 .479.213.479.473s-.216.473-.48.473H4.477a.478.478 0 0 1-.48-.473c0-.26.216-.473.48-.473zm1.917-7.259v2.743h2.973l-2.973-2.743z" fill="#92A0A7" fill-rule="nonzero" stroke="#92A0A7" stroke-width=".4"/>
</svg>
