<svg width="21" height="22" viewBox="0 0 21 22" xmlns="http://www.w3.org/2000/svg">
    <path d="M9.058 14.302h2.875c.646 0 1.253.25 1.71.705.454.449.713 1.072.713 1.709v3.065c0 .057.022.11.064.152a.232.232 0 0 0 .163.067h1.97c.654 0 1.268-.252 1.73-.71A2.394 2.394 0 0 0 19 17.578V8.867a1.47 1.47 0 0 0-.527-1.127l-6.66-5.28a2.094 2.094 0 0 0-2.675.046l-.028.022-6.533 5.23c-.354.271-.564.68-.577 1.122v8.689C2 18.909 3.102 20 4.456 20h1.916a.232.232 0 0 0 .236-.225l.005-.717.022-.007v-2.335a2.421 2.421 0 0 1 2.423-2.414zM16.553 22h-1.97a2.246 2.246 0 0 1-1.578-.653 2.227 2.227 0 0 1-.649-1.576v-3.055a.406.406 0 0 0-.121-.29.432.432 0 0 0-.302-.124H9.058a.42.42 0 0 0-.423.414v3.78l-.168.055A2.243 2.243 0 0 1 6.372 22H4.456C2 22 0 20.012 0 17.569V8.843a3.46 3.46 0 0 1 1.35-2.665L7.846.977a4.095 4.095 0 0 1 5.211-.082l6.685 5.3A3.464 3.464 0 0 1 21 8.867v8.71A4.432 4.432 0 0 1 16.553 22v.001z" fill="#FFA8A8" fill-rule="evenodd"/>
</svg>
