<svg width="18" height="15" viewBox="0 0 18 15" xmlns="http://www.w3.org/2000/svg">
    <path d="M7.074 7.074a2.653 2.653 0 1 1 0-5.306 2.653 2.653 0 0 1 0 5.306zm2.918.636a4.35 4.35 0 0 0 1.503-3.289 4.421 4.421 0 1 0-8.842 0 4.35 4.35 0 0 0 1.503 3.29A7.074 7.074 0 0 0 0 14.147a.884.884 0 1 0 1.768 0 5.305 5.305 0 0 1 10.611 0 .884.884 0 1 0 1.769 0A7.074 7.074 0 0 0 9.992 7.71zM16.8 6.19h-.884v-.885a.884.884 0 1 0-1.768 0v.885h-.885a.884.884 0 0 0 0 1.768h.885v.884a.884.884 0 1 0 1.768 0v-.884h.884a.884.884 0 1 0 0-1.768z" fill="#92A0A7" fill-rule="evenodd"/>
</svg>
