<svg width="17" height="19" viewBox="0 0 17 19" xmlns="http://www.w3.org/2000/svg">
    <path d="M11.191.435a1.471 1.471 0 0 1 2.089 0C15.687 2.855 17 6.077 17 9.497c0 3.401-1.353 6.722-3.76 9.083-.278.28-.656.42-1.034.42s-.756-.14-1.055-.44c-.577-.58-.557-1.52.02-2.1 1.83-1.801 2.885-4.342 2.885-6.942a9.832 9.832 0 0 0-2.865-6.982 1.491 1.491 0 0 1 0-2.1zm-4.72 3.721a1.471 1.471 0 0 1 2.089 0 7.72 7.72 0 0 1 2.228 5.341c0 2.021-.776 3.902-2.208 5.342-.299.3-.677.44-1.055.44a1.44 1.44 0 0 1-1.054-.44 1.491 1.491 0 0 1 0-2.1 4.584 4.584 0 0 0 1.333-3.242c0-1.22-.478-2.38-1.333-3.24a1.491 1.491 0 0 1 0-2.1zm-4.223 3.08c1.233 0 2.248 1.001 2.248 2.261 0 1.26-1.015 2.261-2.248 2.261A2.265 2.265 0 0 1 0 9.498c0-1.24 1.015-2.261 2.248-2.261z" fill="#FFF" fill-rule="nonzero"/>
</svg>
