<svg width="260" height="260" viewBox="0 0 260 260" xmlns="http://www.w3.org/2000/svg">
    <g fill="none" fill-rule="evenodd">
        <g transform="translate(4.86 4.923)">
            <circle fill="#FFF" cx="125" cy="125" r="105"/>
            <path d="M205.533 80.465c-24.634-44.44-80.628-60.496-125.068-35.863-44.44 24.634-60.496 80.628-35.863 125.068 24.634 44.44 80.628 60.496 125.068 35.863 36.567-20.27 53.916-61.773 45.192-100.6" stroke="#FFA8A8" stroke-width="6" opacity=".3" stroke-linecap="round"/>
        </g>
        <g fill="#0C446D" fill-rule="nonzero">
            <path d="M150.312 91.5h-32.374c-3.417 0-6.2 2.922-6.31 6.571l-.003.224v78.41c0 3.678 2.714 6.673 6.105 6.791l.208.004h32.374c3.417 0 6.2-2.922 6.31-6.571l.003-.224v-78.41c0-3.678-2.714-6.673-6.105-6.791l-.208-.004z" fill-opacity=".1"/>
            <path d="M149.313 84.5h-37.5a7.313 7.313 0 0 0-7.31 7.071l-.003.241v84.375a7.313 7.313 0 0 0 7.071 7.31l.242.003h37.5a7.313 7.313 0 0 0 7.308-7.071l.004-.242V91.812a7.313 7.313 0 0 0-7.071-7.308l-.242-.004zM154.5 171v5.187a5.188 5.188 0 0 1-4.968 5.183l-.22.005h-37.5a5.188 5.188 0 0 1-5.182-4.968l-.005-.22V171H154.5zm-23.938 4.125a1.063 1.063 0 1 0 0 2.125 1.063 1.063 0 0 0 0-2.125zm23.938-76v69.75h-47.875v-69.75H154.5zm-15.724 16.557a1.068 1.068 0 0 0-.927 1.603 32.29 32.29 0 0 1-.002 31.856 1.062 1.062 0 0 0 .921 1.593c.387-.003.741-.217.93-.567a34.413 34.413 0 0 0 .001-33.95 1.068 1.068 0 0 0-.798-.527l-.125-.008zm-7.23 3.642c-.399-.01-.77.206-.96.557-.19.352-.167.78.08 1.14a24.186 24.186 0 0 1 .001 24.417 1.063 1.063 0 0 0 .918 1.594 1.06 1.06 0 0 0 .913-.495 26.334 26.334 0 0 0-.02-26.61 1.062 1.062 0 0 0-.931-.603zm-6.916 3.64a1.063 1.063 0 0 0-.869 1.625 16.414 16.414 0 0 1 0 17.26 1.062 1.062 0 0 0 .903 1.62c.368 0 .71-.192.903-.505a18.539 18.539 0 0 0 0-19.497 1.063 1.063 0 0 0-.937-.502zm-5.74 3.892a1.063 1.063 0 0 0-1.46-.23 1.06 1.06 0 0 0-.287 1.438 8.969 8.969 0 0 1 0 10.317 1.062 1.062 0 0 0 .867 1.674c.346.002.671-.165.87-.444a11.086 11.086 0 0 0 .184-12.5l-.174-.255zm30.422-40.231a5.188 5.188 0 0 1 5.183 4.968l.005.22V97h-47.875v-5.188a5.188 5.188 0 0 1 4.968-5.182l.22-.005h37.5zm-13.671 4.125h-10.157a1.063 1.063 0 0 0-.115 2.119l.115.006h10.157a1.063 1.063 0 0 0 .115-2.119l-.115-.006z"/>
        </g>
    </g>
</svg>
