<svg width="32" height="32" viewBox="0 0 32 32" xmlns="http://www.w3.org/2000/svg">
    <g fill="#92A0A7" fill-rule="evenodd">
        <path d="M15.584 2.078A6.24 6.24 0 0 0 9.35 8.31a6.24 6.24 0 0 0 6.234 6.234 6.24 6.24 0 0 0 6.233-6.234 6.24 6.24 0 0 0-6.233-6.233zm0 14.545c-4.583 0-8.312-3.729-8.312-8.312C7.272 3.73 11.002 0 15.584 0c4.582 0 8.311 3.729 8.311 8.311 0 4.583-3.729 8.312-8.311 8.312z"/>
        <path d="M15.998 12.68h-.831a2.717 2.717 0 0 1-2.592-1.939 1.04 1.04 0 1 1 1.994-.587.628.628 0 0 0 .598.447h.831a.624.624 0 0 0 0-1.249h-.831a2.706 2.706 0 0 1-2.703-2.703 2.706 2.706 0 0 1 2.703-2.703h.831c1.166 0 2.195.742 2.564 1.848a1.04 1.04 0 1 1-1.972.659.621.621 0 0 0-.592-.428h-.831a.624.624 0 0 0 0 1.248h.831a2.706 2.706 0 0 1 2.703 2.703 2.706 2.706 0 0 1-2.703 2.704z"/>
        <path d="M2.078 29.09H17.38l11.574-6.751a1.049 1.049 0 0 0-.327-.347 1.022 1.022 0 0 0-.975-.095l-9.59 3.996c-.127.053-.263.08-.4.08H9.35a1.039 1.039 0 1 1 0-2.078h6.234a1.04 1.04 0 0 0 0-2.078h-5.195c-.205 0-.406-.061-.576-.173-.795-.53-3.177-1.905-4.618-1.905-1.133 0-2.439.915-3.117 1.495v7.856zm15.584 2.077H1.039A1.039 1.039 0 0 1 0 30.13v-9.35c0-.276.11-.54.304-.735.243-.244 2.452-2.382 4.89-2.382 2.02 0 4.626 1.526 5.502 2.077h4.888a3.12 3.12 0 0 1 3.07 3.656l8.198-3.416a3.112 3.112 0 0 1 2.927.284 3.11 3.11 0 0 1 1.388 2.593c0 .369-.195.712-.515.898l-12.467 7.272c-.159.093-.34.141-.523.141zm-2.078-17.661a1.07 1.07 0 0 1-.738-.301c-.041-.052-.093-.104-.125-.167a.578.578 0 0 1-.093-.176.698.698 0 0 1-.063-.187c-.01-.073-.02-.135-.02-.208 0-.27.113-.54.301-.738.384-.384 1.08-.384 1.475 0 .187.198.302.468.302.738 0 .073-.01.135-.022.208a.63.63 0 0 1-.063.187.601.601 0 0 1-.093.176 2.308 2.308 0 0 1-.125.167 1.088 1.088 0 0 1-.736.3zm0-8.311a1.07 1.07 0 0 1-.738-.302c-.041-.052-.093-.104-.125-.166a.578.578 0 0 1-.093-.177.698.698 0 0 1-.063-.187c-.01-.072-.02-.135-.02-.207 0-.27.113-.54.301-.738.384-.384 1.08-.384 1.475 0 .187.197.302.468.302.738 0 .072-.01.135-.022.207a.63.63 0 0 1-.063.187.601.601 0 0 1-.093.177 2.31 2.31 0 0 1-.125.166 1.088 1.088 0 0 1-.736.302z"/>
    </g>
</svg>
