<svg width="18" height="18" viewBox="0 0 18 18" xmlns="http://www.w3.org/2000/svg">
    <g fill="#92A0A7" fill-rule="evenodd">
        <path d="M8.603 1.147a3.445 3.445 0 0 0-3.441 3.441A3.445 3.445 0 0 0 8.603 8.03a3.445 3.445 0 0 0 3.441-3.44 3.445 3.445 0 0 0-3.441-3.442zm0 8.03a4.594 4.594 0 0 1-4.588-4.589A4.594 4.594 0 0 1 8.603 0a4.594 4.594 0 0 1 4.588 4.588 4.594 4.594 0 0 1-4.588 4.589z"/>
        <path d="M8.835 6.994h-.459a1.5 1.5 0 0 1-1.43-1.068.573.573 0 1 1 1.1-.324.347.347 0 0 0 .33.246h.46a.344.344 0 0 0 0-.688h-.46a1.493 1.493 0 0 1-1.491-1.49c0-.822.669-1.491 1.491-1.491h.46c.643 0 1.21.41 1.414 1.02a.573.573 0 1 1-1.088.362.343.343 0 0 0-.327-.236h-.459a.344.344 0 0 0 0 .688h.46c.822 0 1.491.67 1.491 1.49 0 .822-.669 1.491-1.492 1.491z"/>
        <path d="M1.147 16.059h8.448l6.389-3.727a.579.579 0 0 0-.719-.244l-5.294 2.206a.578.578 0 0 1-.221.044H5.162a.573.573 0 1 1 0-1.147h3.441a.574.574 0 0 0 0-1.147H5.735a.58.58 0 0 1-.318-.096c-.439-.292-1.754-1.05-2.55-1.05-.624 0-1.345.504-1.72.824v4.337zm8.603 1.147H.574A.573.573 0 0 1 0 16.632v-5.161c0-.152.06-.299.168-.406.134-.135 1.354-1.315 2.7-1.315 1.115 0 2.553.843 3.036 1.147h2.699a1.723 1.723 0 0 1 1.695 2.018l4.525-1.885a1.718 1.718 0 0 1 1.617.156c.48.32.766.855.766 1.432a.573.573 0 0 1-.285.495l-6.882 4.015a.575.575 0 0 1-.289.078zm-1.147-9.75a.59.59 0 0 1-.407-.166c-.023-.03-.052-.058-.07-.092a.319.319 0 0 1-.05-.098.385.385 0 0 1-.036-.103c-.005-.04-.01-.074-.01-.115a.6.6 0 0 1 .166-.407.6.6 0 0 1 .814 0 .603.603 0 0 1 .166.407c0 .04-.005.075-.012.115a.348.348 0 0 1-.034.103.332.332 0 0 1-.052.098 1.273 1.273 0 0 1-.068.092.6.6 0 0 1-.407.166zm0-4.588a.59.59 0 0 1-.407-.167c-.023-.028-.052-.057-.07-.091a.319.319 0 0 1-.05-.098.385.385 0 0 1-.036-.103c-.005-.04-.01-.075-.01-.115a.6.6 0 0 1 .166-.407.6.6 0 0 1 .814 0 .603.603 0 0 1 .166.407c0 .04-.005.075-.012.115a.348.348 0 0 1-.034.103.332.332 0 0 1-.052.098 1.273 1.273 0 0 1-.068.091.6.6 0 0 1-.407.167z"/>
    </g>
</svg>
