<svg width="50" height="82" viewBox="0 0 50 82" xmlns="http://www.w3.org/2000/svg">
    <g transform="translate(1 1)" fill="none" fill-rule="evenodd">
        <g fill="#FFA8A8" fill-rule="nonzero" stroke="#FFF">
            <path d="M37.793 65.05c-5.832 7.506-9.19 8.453-12.178 9.3l-.52.151a1.351 1.351 0 0 0-.686.49l-2.079 2.872c-.432.6-.306 1.437.28 1.876.234.177.507.261.778.261.405 0 .804-.19 1.064-.546l1.812-2.505.35-.1c3.064-.868 6.88-1.946 13.245-10.137.567-.73 1.604-2.408 2.61-4.025.737-1.19 1.403-2.281 1.693-2.66l2.659-3.298c.458-.57.672-1.286.6-2.023a2.743 2.743 0 0 0-.976-1.858l-.721-.603 1.654-2.053a2.792 2.792 0 0 0-.376-3.881l-1.074-.894 1.446-1.795a2.76 2.76 0 0 0 .603-2.023A2.75 2.75 0 0 0 47 39.737l-1.252-1.045 1.634-2.026c.461-.57.675-1.286.606-2.02a2.735 2.735 0 0 0-.978-1.861l-1.523-1.27a2.381 2.381 0 0 0-.24-.18V21.05c.507-.188.873-.67.873-1.25v-3.348c0-.58-.366-1.062-.873-1.25V4.95c0-2.73-2.185-4.95-4.87-4.95H11.968c-2.686 0-4.87 2.22-4.87 4.95v25.548a5.573 5.573 0 0 0-3.868-.195c-.97.305-1.796.868-2.376 1.648a4.077 4.077 0 0 0-.346.596c-.794 1.651-.481 3.644-.234 5.251l.105.71c.893 6.57.468 9.903.122 12.595-.26 2.066-.507 4.019 0 6.607.528 2.7 1.427 4.645 2.3 6.376l-1.723 2.797a1.355 1.355 0 0 0 .415 1.848c.616.389 1.43.204 1.816-.422l2.125-3.442c.247-.402.145-1.156-.07-1.578-.784-1.527-1.756-3.429-2.28-6.101-.421-2.157-.22-3.737.034-5.753.362-2.837.813-6.367-.129-13.292l-.115-.77c-.201-1.293-.429-2.756.122-3.865.204-.274.57-.505 1.008-.643a2.944 2.944 0 0 1 2.369.258c.254.148.494.338.718.57v25.645c0 1.895 1.44 3.385 3.279 3.385h28.955c-.616.988-1.213 1.916-1.532 2.328zm4.504-6.894c-.046.04-.089.08-.132.127-.425-.027-1.288-.57-1.693-1.313l2.059-2.552c.234.014.458.01.672-.026.26-.027.514-.077.758-.151l.814.68.01.11-2.488 3.125zm.468-6.42c-.07-.013-.109-.003-.168-.007-.455-.107-1.2-.62-1.569-1.292l2.073-2.569a3.98 3.98 0 0 0 1.245-.305l.982.82-2.563 3.353zm-1.733-7.87 2.072-2.568a4.07 4.07 0 0 0 1.246-.302l.985.82.01.111-2.59 3.255c-.412-.003-1.305-.556-1.723-1.316zm2.78-10.28 1.536 1.382-2.59 3.252c-.415 0-1.308-.552-1.723-1.313l2.735-3.338c.016 0 .026.003.043.016zM9.735 4.95c0-1.253 1.001-2.27 2.234-2.27h28.408c1.232 0 2.234 1.017 2.234 2.27V8.14H9.734V4.95zm0 28.244V10.817H42.61V31.15a2.68 2.68 0 0 0-.942.747l-2.672 3.308c-.65.804-.739 1.869-.248 2.924.386.827 1.065 1.557 1.846 2.06l-1.595 1.975c-.65.804-.738 1.869-.247 2.924.349.753.945 1.426 1.64 1.922l-1.39 1.724c-.35.432-.524.945-.544 1.49H9.734V33.195zm.642 26.844c-.366 0-.642-.302-.642-.704v-6.433h29.91c.13.134.241.278.383.395l-1.588 1.97c-.65.803-.742 1.872-.247 2.923.332.717.886 1.36 1.535 1.845h-29.35v.004z"/>
            <path d="M28.257 4.293H24.14c-.636 0-1.153.526-1.153 1.172 0 .647.517 1.172 1.153 1.172h4.118c.636 0 1.154-.525 1.154-1.172 0-.646-.518-1.172-1.154-1.172z"/>
            <ellipse cx="34.692" cy="5.465" rx="1.183" ry="1.202"/>
            <ellipse cx="26.277" cy="56.625" rx="2.04" ry="2.073"/>
        </g>
        <circle stroke="#FFA8A8" stroke-width="1.5" cx="27" cy="30.5" r="7.5"/>
        <path d="M27.097 35c.08 0 .154-.04.22-.118.067-.08.1-.16.1-.244v-.377a4.347 4.347 0 0 0 1.247-.266c.394-.148.716-.364.964-.647.248-.284.372-.64.372-1.068 0-.264-.057-.491-.172-.681a1.524 1.524 0 0 0-.447-.473 2.34 2.34 0 0 0-.575-.29 3.595 3.595 0 0 0-.677-.16 10.331 10.331 0 0 0-.712-.072v-2.218c.373.042.701.145.984.307.283.163.498.378.645.645a.39.39 0 0 0 .142.135.367.367 0 0 0 .457-.048.343.343 0 0 0 .06-.43 2.384 2.384 0 0 0-.919-.913 3.33 3.33 0 0 0-1.369-.425v-.29a.365.365 0 0 0-.375-.367.365.365 0 0 0-.374.362v.295c-.31.026-.616.083-.92.172a3.207 3.207 0 0 0-.826.37 1.908 1.908 0 0 0-.595.584 1.474 1.474 0 0 0-.222.811c0 .36.112.655.337.882.225.227.47.394.737.5.23.09.471.154.724.193.254.039.508.068.765.087v2.275a3.133 3.133 0 0 1-1.187-.33 1.836 1.836 0 0 1-.772-.752.353.353 0 0 0-.137-.142.371.371 0 0 0-.572.302.34.34 0 0 0 .045.174c.233.434.583.777 1.05 1.026.465.25.99.399 1.573.447v.377c0 .245.143.367.43.367zm-.43-4.45a6.871 6.871 0 0 1-.621-.084 3.33 3.33 0 0 1-.582-.162 1.415 1.415 0 0 1-.415-.258.573.573 0 0 1-.195-.452c0-.254.094-.465.28-.633.187-.167.419-.298.697-.391.278-.093.557-.155.837-.184v2.165zm.75 2.986V31.31c.197.016.391.04.585.073.193.032.38.079.56.14.17.058.326.145.471.263a.602.602 0 0 1 .218.495c0 .274-.091.5-.273.677a1.78 1.78 0 0 1-.692.405c-.28.094-.57.152-.869.174z" stroke="#FFA8A8" stroke-width=".6" fill="#FFA8A8" fill-rule="nonzero"/>
        <path stroke="#FFA8A8" d="m34.846 18.63-2.303-.697 2.303-.697.697-2.303.697 2.303 2.303.697-2.303.697-.697 2.303zM17.104 43.586l-2.405-.077 2.044-1.269.077-2.405 1.27 2.045 2.404.077-2.044 1.269-.077 2.405z"/>
    </g>
</svg>
