<svg width="64" height="63" viewBox="0 0 64 63" xmlns="http://www.w3.org/2000/svg" xmlns:xlink="http://www.w3.org/1999/xlink">
    <defs>
        <filter x="-223%" y="-216.4%" width="545.9%" height="569%" filterUnits="objectBoundingBox" id="a">
            <feOffset dy="3" in="SourceAlpha" result="shadowOffsetOuter1"/>
            <feGaussianBlur stdDeviation="12.5" in="shadowOffsetOuter1" result="shadowBlurOuter1"/>
            <feColorMatrix values="0 0 0 0 0 0 0 0 0 0 0 0 0 0 0 0 0 0 0.16 0" in="shadowBlurOuter1"/>
        </filter>
        <path d="M334.57 168.028a.64.64 0 0 1-.637-.587 1.727 1.727 0 0 0-1.192-1.51.64.64 0 0 1 .39-1.219c1.16.37 1.975 1.4 2.077 2.622a.64.64 0 0 1-.638.694zm-9.716 4.61a29.134 29.134 0 0 0 4.893 3.83 29.14 29.14 0 0 0 4.892-3.83 9.642 9.642 0 0 0 2.287-3.644c.759-2.37.053-5.372-2.752-6.275a4.48 4.48 0 0 0-4.048.682.64.64 0 0 1-.767 0 4.471 4.471 0 0 0-4.048-.682c-2.8.902-3.503 3.904-2.743 6.275a9.642 9.642 0 0 0 2.286 3.644zm4.897 5.22a.64.64 0 0 1-.33-.09l-.207-.125a30.413 30.413 0 0 1-5.254-4.09l-.006-.005a10.929 10.929 0 0 1-2.602-4.156c-.509-1.58-.464-3.246.124-4.688.635-1.555 1.858-2.692 3.443-3.203a5.752 5.752 0 0 1 4.824.612 5.76 5.76 0 0 1 4.823-.612c1.586.51 2.81 1.648 3.447 3.202.591 1.444.637 3.109.129 4.69a10.928 10.928 0 0 1-2.608 4.161 30.413 30.413 0 0 1-5.248 4.085l-.198.123a.64.64 0 0 1-.338.097z" id="b"/>
    </defs>
    <g transform="translate(-298 -140)" fill="none" fill-rule="evenodd">
        <use fill="#000" filter="url(#a)" xlink:href="#b"/>
        <use fill="#FFA8A8" xlink:href="#b"/>
    </g>
</svg>