<svg width="18" height="17" viewBox="0 0 18 17" xmlns="http://www.w3.org/2000/svg">
    <path d="M13.097 3.382a.69.69 0 0 0-.871.431.705.705 0 0 0 .43.888c.553.206.923.75.923 1.353v.027a.741.741 0 0 0 .164.534c.12.147.302.232.492.25a.709.709 0 0 0 .68-.656v-.102a2.845 2.845 0 0 0-1.818-2.725zM5.415.658c.543.016 1.069.111 1.578.284h.051c.035.017.06.035.078.051.19.061.37.13.543.225l.327.147c.13.069.285.197.371.25.086.05.181.103.259.163a5.4 5.4 0 0 1 3.32-1.12c.543 0 1.086.077 1.603.25 3.182 1.034 4.329 4.526 3.371 7.578a10.973 10.973 0 0 1-2.594 4.147 33.156 33.156 0 0 1-5.459 4.276l-.215.13-.224-.139a32.844 32.844 0 0 1-5.492-4.276A11.15 11.15 0 0 1 .336 8.486C-.638 5.434.51 1.942 3.726.89c.25-.086.507-.147.766-.18h.104A5 5 0 0 1 5.32.658h.095z" fill="#FFA8A8" fill-rule="evenodd"/>
</svg>
