<svg width="64" height="63" viewBox="0 0 64 63" xmlns="http://www.w3.org/2000/svg" xmlns:xlink="http://www.w3.org/1999/xlink">
    <defs>
        <filter x="-226.2%" y="-219.8%" width="552.3%" height="576.1%" filterUnits="objectBoundingBox" id="a">
            <feOffset dy="3" in="SourceAlpha" result="shadowOffsetOuter1"/>
            <feGaussianBlur stdDeviation="12.5" in="shadowOffsetOuter1" result="shadowBlurOuter1"/>
            <feColorMatrix values="0 0 0 0 0 0 0 0 0 0 0 0 0 0 0 0 0 0 0.16 0" in="shadowBlurOuter1"/>
        </filter>
        <path d="M335.097 429.382a.69.69 0 0 0-.871.431.705.705 0 0 0 .43.888c.553.206.923.75.923 1.353v.027a.741.741 0 0 0 .164.534c.12.147.302.232.492.25a.709.709 0 0 0 .68-.656v-.102a2.845 2.845 0 0 0-1.818-2.725zm-7.682-2.724c.543.016 1.069.111 1.578.284h.051c.035.017.06.035.078.051.19.061.37.13.543.225l.327.147c.13.069.285.197.371.25.086.05.181.103.259.163a5.4 5.4 0 0 1 3.32-1.12c.543 0 1.086.077 1.603.25 3.182 1.034 4.329 4.526 3.371 7.578a10.973 10.973 0 0 1-2.594 4.147 33.156 33.156 0 0 1-5.459 4.276l-.215.13-.224-.139a32.844 32.844 0 0 1-5.492-4.276 11.15 11.15 0 0 1-2.596-4.138c-.974-3.052.173-6.544 3.39-7.596.25-.086.507-.147.766-.18h.103a5 5 0 0 1 .725-.052h.095z" id="b"/>
    </defs>
    <g transform="translate(-299 -406)" fill="none" fill-rule="evenodd">
        <use fill="#000" filter="url(#a)" xlink:href="#b"/>
        <use fill="#FFA8A8" xlink:href="#b"/>
    </g>
</svg>
