<svg width="19" height="17" viewBox="0 0 19 17" xmlns="http://www.w3.org/2000/svg">
    <path d="M2.659 1C1.747 1 1 1.747 1 2.659v11.817c0 .796.654 1.45 1.451 1.45H16.55c.797 0 1.451-.654 1.451-1.45V4.939c0-.797-.654-1.451-1.451-1.451h-1.037V1.415A.43.43 0 0 0 15.098 1H2.658zm0 .83h12.024v1.658H2.659a.819.819 0 0 1-.83-.83c0-.466.363-.829.83-.829zm-.83 2.26c.245.143.528.227.83.227 4.67-.004 9.876 0 13.89 0 .352 0 .622.27.622.622v2.073h-6.012c-.568 0-1.037.47-1.037 1.037v3.317c0 .567.47 1.036 1.037 1.036h6.012v2.074c0 .351-.27.622-.622.622H2.45a.612.612 0 0 1-.622-.622V4.09zm9.33 3.751h6.012v3.732h-6.012a.198.198 0 0 1-.208-.207V8.049c0-.122.086-.208.208-.208zm2.073 1.037a.83.83 0 1 0 0 1.659.83.83 0 0 0 0-1.659z" fill="#92A0A7" fill-rule="nonzero" stroke="#92A0A7" stroke-width=".5"/>
</svg>
